<?xml version="1.0" encoding="utf-8"?>
<!-- Generator: Adobe Illustrator 23.1.0, SVG Export Plug-In . SVG Version: 6.00 Build 0)  -->
<svg version="1.1" id="Слой_1" xmlns="http://www.w3.org/2000/svg" xmlns:xlink="http://www.w3.org/1999/xlink" x="0px" y="0px"
	 viewBox="0 0 203 319" style="enable-background:new 0 0 203 319;" xml:space="preserve">
<style type="text/css">
	.st0{fill-rule:evenodd;clip-rule:evenodd;fill:#D4D4D4;}
</style>
<path class="st0" d="M6.5,2C0.6,5.9,0,8.4,0,29.5c0,21.6,0.6,23.8,7.7,27.2c3.6,1.7,8.7,1.8,93.3,1.8c87.5,0,89.6,0,93.5-2
	c2.2-1.1,5-3.5,6.3-5.4c2.2-3.2,2.3-4.3,2.3-20.9c0-15.9-0.2-18-2.1-21.9c-1.2-2.4-3.5-5.3-5.3-6.3c-3-1.8-6.5-1.9-94.6-1.9
	C11.6,0,9.4,0,6.5,2z M5.8,89.5c-2,1.4-4.1,3.9-4.7,5.6C0.5,97,0,105.8,0,116.7c0,17.4,0.1,18.6,2.3,21.8c1.2,1.9,3.9,4.4,5.9,5.5
	c3.6,2,5,2,69.5,2c40.4,0,67.2-0.4,69.4-1c2-0.5,5.4-2.6,7.8-4.6l4.2-3.6v-20.1c0-18.4-0.2-20.3-2-23.3c-4.1-6.7-1.3-6.5-78.2-6.5
	H9.5L5.8,89.5z M8.1,175.2c-7.5,3.9-8.1,6.2-8.1,28.5v19.3l3.9,4.2l3.9,4.2l48.7,0.3l48.7,0.3l3.9-2.6c6-4,6.8-6.9,6.8-26.1
	c0-19.8-1.2-23.8-8.4-27.6c-4.1-2.2-4.8-2.2-49.7-2.5l-45.5-0.3L8.1,175.2z M11.8,261c-4.8,1.5-8.8,4.4-10.3,7.6
	c-1.2,2.5-1.5,7.3-1.5,21.9c0,17,0.2,19,2,22c3.7,6.1,5.9,6.5,34,6.5c28.8,0,30.4-0.3,34.5-7.5c2.4-4,2.5-4.9,2.5-21.1
	c0-20.5-1-23.1-9.9-27.7l-5.4-2.8l-21.6,0.1C24.2,260.1,13.3,260.5,11.8,261z"/>
</svg>
